<?xml version="1.0" encoding="UTF-8" standalone="no"?>
<svg
   xmlns:dc="http://purl.org/dc/elements/1.1/"
   xmlns:cc="http://creativecommons.org/ns#"
   xmlns:rdf="http://www.w3.org/1999/02/22-rdf-syntax-ns#"
   xmlns:svg="http://www.w3.org/2000/svg"
   xmlns="http://www.w3.org/2000/svg"
   xmlns:sodipodi="http://sodipodi.sourceforge.net/DTD/sodipodi-0.dtd"
   xmlns:inkscape="http://www.inkscape.org/namespaces/inkscape"
   viewBox="0 0 64 64"
   version="1.1"
   id="svg87"
   sodipodi:docname="key.svg"
   inkscape:version="1.0.1 (3bc2e813f5, 2020-09-07, custom)">
  <metadata
     id="metadata91">
    <rdf:RDF>
      <cc:Work
         rdf:about="">
        <dc:format>image/svg+xml</dc:format>
        <dc:type
           rdf:resource="http://purl.org/dc/dcmitype/StillImage" />
      </cc:Work>
    </rdf:RDF>
  </metadata>
  <sodipodi:namedview
     pagecolor="#ffffff"
     bordercolor="#666666"
     borderopacity="1"
     objecttolerance="10"
     gridtolerance="10"
     guidetolerance="10"
     inkscape:pageopacity="0"
     inkscape:pageshadow="2"
     inkscape:window-width="1920"
     inkscape:window-height="1015"
     id="namedview89"
     showgrid="false"
     inkscape:zoom="7.375"
     inkscape:cx="16.199185"
     inkscape:cy="19.92415"
     inkscape:window-x="1366"
     inkscape:window-y="37"
     inkscape:window-maximized="1"
     inkscape:current-layer="svg87"
     inkscape:document-rotation="0" />
  <defs
     id="defs4">
    <style
       id="style2">.cls-1{fill:#c5e260;}.cls-2{fill:#ffeb71;}.cls-3{fill:#cd5257;}.cls-4{fill:#94aa48;}.cls-5{fill:#c1272d;}.cls-6{fill:#7d5d3e;}.cls-7{fill:#a67c52;}.cls-8{fill:#754c24;}.cls-9{fill:#8c6239;}.cls-10{fill:none;stroke:#000;stroke-linejoin:round;stroke-width:2px;}</style>
  </defs>
  <title
     id="title6" />
  <path
     d="m 102.98654,-14.053826 a 15,15 0 0 0 -15.000002,14.99999961 15,15 0 0 0 0.01953,0.58593799 15,15 0 0 1 14.98047,-14.5859376 15,15 0 0 1 14.98047,14.4140616 15,15 0 0 0 0.0195,-0.41406199 15,15 0 0 0 -15,-14.99999961 z"
     style="opacity:0.2;fill:#ffffff"
     id="path8-3" />
  <path
     d="M 49.445402,4.9783513 26.709788,27.713969 23.508706,24.739643 21.356961,31.192458 c -0.918678,-0.180337 -1.852374,-0.273223 -2.788578,-0.277411 -8.185397,0 -14.8209713,6.635573 -14.8209713,14.820968 0,8.185395 6.6355743,14.820971 14.8209713,14.820971 8.185399,0 14.820969,-6.635576 14.820969,-14.820971 -0.0037,-0.922193 -0.09325,-1.842039 -0.267765,-2.747572 l 7.67825,-2.192751 -3.842744,-3.567743 1.372582,-1.37258 h 6.175404 v -6.175402 h 4.940323 l 1.235081,-1.235081 v -4.940323 h 2.470161 l 2.470162,-2.470162 V 18.56424 l 3.705242,-3.705243 V 4.9783513 Z M 14.245598,45.736015 c 2.387413,0 4.322785,1.935375 4.322785,4.322783 0,2.387407 -1.935372,4.322783 -4.322785,4.322783 -2.387408,0 -4.3227825,-1.935376 -4.3227825,-4.322783 0,-2.387408 1.9353745,-4.322783 4.3227825,-4.322783 z"
     style="fill:#0066b3;stroke:#0066b3;stroke-width:2;stroke-opacity:1;stroke-miterlimit:4;stroke-dasharray:none;stroke-linejoin:round;fill-opacity:0.5"
     id="path14-5" />
</svg>
