<?xml version="1.0" encoding="UTF-8" standalone="no"?>
<svg
   xmlns:dc="http://purl.org/dc/elements/1.1/"
   xmlns:cc="http://creativecommons.org/ns#"
   xmlns:rdf="http://www.w3.org/1999/02/22-rdf-syntax-ns#"
   xmlns:svg="http://www.w3.org/2000/svg"
   xmlns="http://www.w3.org/2000/svg"
   xmlns:sodipodi="http://sodipodi.sourceforge.net/DTD/sodipodi-0.dtd"
   xmlns:inkscape="http://www.inkscape.org/namespaces/inkscape"
   viewBox="0 0 48 48"
   version="1.1"
   id="svg10"
   sodipodi:docname="bookfiles.svg"
   inkscape:version="1.0.2 (e86c870879, 2021-01-15)">
  <metadata
     id="metadata16">
    <rdf:RDF>
      <cc:Work
         rdf:about="">
        <dc:format>image/svg+xml</dc:format>
        <dc:type
           rdf:resource="http://purl.org/dc/dcmitype/StillImage" />
      </cc:Work>
    </rdf:RDF>
  </metadata>
  <defs
     id="defs14">
    <inkscape:perspective
       sodipodi:type="inkscape:persp3d"
       inkscape:vp_x="0 : 24 : 1"
       inkscape:vp_y="0 : 1000 : 0"
       inkscape:vp_z="48 : 24 : 1"
       inkscape:persp3d-origin="24 : 16 : 1"
       id="perspective839" />
  </defs>
  <sodipodi:namedview
     pagecolor="#ffffff"
     bordercolor="#666666"
     borderopacity="1"
     objecttolerance="10"
     gridtolerance="10"
     guidetolerance="10"
     inkscape:pageopacity="0"
     inkscape:pageshadow="2"
     inkscape:window-width="1920"
     inkscape:window-height="1015"
     id="namedview12"
     showgrid="false"
     inkscape:zoom="8"
     inkscape:cx="52.63462"
     inkscape:cy="38.312903"
     inkscape:window-x="1366"
     inkscape:window-y="37"
     inkscape:window-maximized="1"
     inkscape:current-layer="svg10"
     inkscape:document-rotation="0" />
  <path
     style="fill:#0066b3;fill-opacity:1;stroke-width:0.0750471"
     d="m 22.576035,46.657171 c -0.360069,-0.02842 -0.685526,-0.08469 -0.723247,-0.124995 -0.03768,-0.04035 -0.41047,-1.221509 -0.828342,-2.624889 -0.417872,-1.40338 -0.786719,-2.599587 -0.819651,-2.65823 -0.03297,-0.05864 -0.496911,-0.231659 -1.031064,-0.384469 -0.534146,-0.152817 -1.275858,-0.389657 -1.648237,-0.526326 l -0.677063,-0.248491 -2.269765,1.704257 -2.269758,1.704258 -0.617918,-0.390859 c -0.719856,-0.455335 -2.5054206,-1.774566 -2.7085906,-2.001193 -0.1371947,-0.15303 -0.1240687,-0.197699 0.8067529,-2.74643 0.5204147,-1.424985 0.9462087,-2.629097 0.9462087,-2.675815 0,-0.04671 -0.214074,-0.343168 -0.47573,-0.658788 C 9.9979747,34.709581 9.5801573,34.146687 9.3311406,33.774324 9.0821238,33.401953 8.8234275,33.051681 8.7562511,32.995927 8.6317506,32.892607 8.0434449,32.897655 4.2653542,33.034473 L 3.0111169,33.079927 2.822486,32.653419 C 2.4834323,31.886735 1.5984338,29.10289 1.6750543,29.04405 c 0.00942,-0.0071 1.091662,-0.728742 2.4049661,-1.603355 L 6.4678568,25.85049 6.4151017,25.610571 c -0.029047,-0.131958 -0.051656,-0.881575 -0.0504,-1.665813 L 6.3670568,22.518862 4.009743,20.949209 C 2.2780641,19.796141 1.6617006,19.347997 1.6873795,19.260645 c 0.019234,-0.06539 0.1196646,-0.422842 0.2232123,-0.794326 0.2244997,-0.805433 0.4610734,-1.5025 0.7990123,-2.354306 l 0.2492366,-0.628218 1.6556,0.04757 c 0.9105832,0.02614 2.2128339,0.06736 2.8938852,0.09151 l 1.238277,0.04396 0.2455625,-0.415878 C 9.2938116,14.740097 10.031002,13.73552 10.52876,13.157035 L 10.89982,12.725794 9.9464285,10.104838 C 9.4220568,8.6633117 9.0157482,7.4471257 9.0435153,7.4022053 9.2216815,7.1139206 12.230199,4.9953944 12.461419,4.9953944 c 0.02865,0 1.061987,0.7607727 2.296245,1.6906052 1.603865,1.2082728 2.286942,1.6812083 2.394211,1.6576648 0.08255,-0.018135 0.521577,-0.1673327 0.975616,-0.3315801 0.454032,-0.1642474 1.146341,-0.3751108 1.538464,-0.4685785 0.392122,-0.093475 0.751839,-0.2069146 0.799365,-0.2520862 0.0475,-0.04514 0.432812,-1.2370369 0.856188,-2.6485739 0.423375,-1.4115448 0.796955,-2.6104208 0.830178,-2.664173 0.07654,-0.1238175 3.896468,-0.128198 4.195469,-0.00471 0.172961,0.071361 0.258131,0.3082016 0.968959,2.6943658 0.428628,1.4388566 0.808778,2.6493197 0.844773,2.6899066 0.03603,0.040587 0.494901,0.1967169 1.019791,0.3469512 0.52489,0.1502265 1.259026,0.3849632 1.631405,0.521632 l 0.677063,0.2484829 2.269765,-1.7042494 2.269756,-1.7042573 0.617918,0.3908511 c 0.719856,0.4553426 2.50542,1.774566 2.70859,2.001201 0.137187,0.1530213 0.124069,0.1976904 -0.806753,2.7464294 -0.520415,1.424977 -0.946216,2.629097 -0.946216,2.675808 0,0.04671 0.214082,0.343175 0.475738,0.658787 0.261656,0.31562 0.679473,0.878514 0.92849,1.250885 0.249017,0.372363 0.507925,0.722816 0.575361,0.778782 0.12556,0.104207 0.511285,0.100784 4.452675,-0.03949 l 1.291527,-0.04592 0.183583,0.415101 c 0.352525,0.797128 1.232319,3.560876 1.152943,3.621819 -0.0094,0.0071 -1.091662,0.728751 -2.404966,1.603363 l -2.387836,1.590198 0.05276,0.239918 c 0.02905,0.131958 0.05166,0.881576 0.0504,1.665821 l -0.0024,1.425896 2.357322,1.569653 c 1.731679,1.15306 2.348043,1.601212 2.322364,1.688556 -0.01923,0.0654 -0.119665,0.42285 -0.223213,0.794334 -0.224499,0.805434 -0.461073,1.502492 -0.799012,2.354299 l -0.249237,0.628226 -1.6556,-0.04757 c -0.910583,-0.02614 -2.212836,-0.06736 -2.893887,-0.09151 l -1.238277,-0.04396 -0.245555,0.415879 c -0.301654,0.510869 -1.038844,1.515445 -1.536595,2.09393 l -0.371068,0.43125 0.953392,2.620956 c 0.524372,1.441518 0.93068,2.657704 0.902913,2.702632 -0.178606,0.288999 -3.186833,2.406811 -3.418736,2.406811 -0.02913,0 -1.062434,-0.76111 -2.296242,-1.691359 -1.610986,-1.214632 -2.285592,-1.68186 -2.393379,-1.657665 -0.08256,0.01853 -0.521577,0.168087 -0.975616,0.332334 -0.454032,0.164247 -1.146341,0.375111 -1.538464,0.468579 -0.392123,0.09347 -0.751839,0.206906 -0.799365,0.252078 -0.0475,0.04514 -0.432812,1.237037 -0.856188,2.648582 -0.423375,1.411537 -0.792842,2.603763 -0.821033,2.649382 -0.06233,0.100918 -2.650466,0.162175 -3.619001,0.08566 z m 3.114327,-11.904522 c 3.874156,-0.583957 7.033324,-3.147785 8.420768,-6.833876 0.622799,-1.654635 0.798013,-3.593605 0.488391,-5.404684 -0.869743,-5.087469 -5.278712,-8.812381 -10.430729,-8.812381 -5.152008,0 -9.560986,3.724912 -10.430731,8.812381 -1.097055,6.417103 3.831121,12.290703 10.355689,12.342312 0.47467,0.0039 1.193145,-0.04294 1.596612,-0.103752 z"
     id="path908" />
</svg>
