<?xml version="1.0" encoding="UTF-8" standalone="no"?>
<svg
   xmlns:dc="http://purl.org/dc/elements/1.1/"
   xmlns:cc="http://creativecommons.org/ns#"
   xmlns:rdf="http://www.w3.org/1999/02/22-rdf-syntax-ns#"
   xmlns:svg="http://www.w3.org/2000/svg"
   xmlns="http://www.w3.org/2000/svg"
   xmlns:sodipodi="http://sodipodi.sourceforge.net/DTD/sodipodi-0.dtd"
   xmlns:inkscape="http://www.inkscape.org/namespaces/inkscape"
   viewBox="0 0 48 48"
   version="1.1"
   id="svg10"
   sodipodi:docname="ocrrepeat.svg"
   inkscape:version="1.0.2 (e86c870879, 2021-01-15)">
  <metadata
     id="metadata16">
    <rdf:RDF>
      <cc:Work
         rdf:about="">
        <dc:format>image/svg+xml</dc:format>
        <dc:type
           rdf:resource="http://purl.org/dc/dcmitype/StillImage" />
      </cc:Work>
    </rdf:RDF>
  </metadata>
  <defs
     id="defs14" />
  <sodipodi:namedview
     pagecolor="#ffffff"
     bordercolor="#666666"
     borderopacity="1"
     objecttolerance="10"
     gridtolerance="10"
     guidetolerance="10"
     inkscape:pageopacity="0"
     inkscape:pageshadow="2"
     inkscape:window-width="1920"
     inkscape:window-height="1015"
     id="namedview12"
     showgrid="false"
     inkscape:zoom="8"
     inkscape:cx="-18.094059"
     inkscape:cy="3.6982618"
     inkscape:window-x="1366"
     inkscape:window-y="37"
     inkscape:window-maximized="1"
     inkscape:current-layer="svg10"
     inkscape:document-rotation="0" />
  <path
     id="path2"
     style="opacity:0.999;fill:none;fill-opacity:0.65098;stroke:#0066b3;stroke-width:3;stroke-linecap:round;stroke-linejoin:round;stroke-miterlimit:4;stroke-dasharray:none;stroke-opacity:1"
     d="m 10.845925,1.7983901 c -0.9627083,0 -2.0314139,1.0730648 -2.0314139,2.0357731 V 44.540906 c 0,0.905719 1.1256946,2.035772 2.0314139,2.035772 h 28.496463 c 0.905719,0 2.019488,-1.130053 2.035773,-2.035772 V 14.008669 L 29.163523,1.7983901 Z" />
  <g
     id="g870"
     transform="matrix(0.4681405,0,0,0.4681405,-5.791456,33.277451)"
     style="opacity:0.999;stroke:#0066b3;stroke-opacity:1">
    <path
       style="font-style:normal;font-variant:normal;font-weight:normal;font-stretch:normal;font-size:40px;line-height:1.25;font-family:monospace;-inkscape-font-specification:monospace;fill:none;fill-opacity:0.65098;stroke:#0066b3;stroke-width:3.57575;stroke-linecap:round;stroke-linejoin:round;stroke-miterlimit:4;stroke-dasharray:none;stroke-opacity:1"
       d="m 54.439414,-13.434676 q 0,6.0975553 -1.93871,9.0994287 -1.923075,3.0018734 -5.878669,3.0018734 -3.955593,0 -5.878668,-2.9862387 -1.923075,-2.9862386 -1.923075,-9.1150634 0,-6.11319 1.923075,-9.115063 1.93871,-3.001874 5.878668,-3.001874 3.955594,0 5.878669,3.001874 1.93871,3.001873 1.93871,9.115063 z"
       id="path845" />
    <path
       style="font-style:normal;font-variant:normal;font-weight:normal;font-stretch:normal;font-size:40px;line-height:1.25;font-family:monospace;-inkscape-font-specification:monospace;fill:none;fill-opacity:0.65098;stroke:#0066b3;stroke-width:3.57575;stroke-linecap:round;stroke-linejoin:round;stroke-miterlimit:4;stroke-dasharray:none;stroke-opacity:1"
       d="m 73.042857,-2.9572832 c -0.802585,0.42735 -1.626015,0.7452567 -2.470291,0.9537201 -0.844277,0.2188867 -1.74067,0.32833 -2.689178,0.32833 -2.991451,0 -5.315818,-1.0579519 -6.973103,-3.1738558 -1.646861,-2.1159037 -2.470291,-5.0917191 -2.470291,-8.9274461 0,-3.814881 0.828642,-6.785484 2.485926,-8.911811 1.667707,-2.13675 3.986863,-3.205125 6.957468,-3.205125 0.948508,0 1.844901,0.109443 2.689178,0.328329 0.844276,0.208464 1.667706,0.526371 2.470291,0.953721"
       id="path859" />
    <path
       style="font-style:normal;font-variant:normal;font-weight:normal;font-stretch:normal;font-size:40px;line-height:1.25;font-family:monospace;-inkscape-font-specification:monospace;fill:none;fill-opacity:0.65098;stroke:#0066b3;stroke-width:3.57575;stroke-linecap:round;stroke-linejoin:round;stroke-miterlimit:4;stroke-dasharray:none;stroke-opacity:1;paint-order:stroke fill markers"
       d="M 77.780189,-2.0021402 V -25.344833 h 6.504059 c 2.5641,0 4.528868,0.578486 5.894303,1.735459 1.365435,1.156971 2.048153,2.82989 2.048153,5.018757 0,1.542629 -0.354191,2.960669 -1.198468,3.940447 -0.85245,1.384753 -4.571096,2.903209 -6.178068,2.80242"
       id="path857"
       sodipodi:nodetypes="ccssscc" />
    <path
       style="font-style:normal;font-variant:normal;font-weight:normal;font-stretch:normal;font-size:40px;line-height:1.25;font-family:monospace;-inkscape-font-specification:monospace;fill:none;fill-opacity:0.65098;stroke:#0066b3;stroke-width:3.57575;stroke-linecap:round;stroke-linejoin:round;stroke-miterlimit:4;stroke-dasharray:none;stroke-opacity:1;paint-order:stroke fill markers"
       d="m 91.429331,-2.0021402 -2.782987,-5.8943035 c -0.802584,-1.6781302 -1.526994,-2.7569283 -2.17323,-3.2363953 -0.635813,-0.489889 -1.469667,-0.734833 -2.501562,-0.734833 h -5.947069"
       id="path861"
       sodipodi:nodetypes="cccsc" />
  </g>
</svg>
