<?xml version="1.0" encoding="UTF-8" standalone="no"?>
<svg
   xmlns:dc="http://purl.org/dc/elements/1.1/"
   xmlns:cc="http://creativecommons.org/ns#"
   xmlns:rdf="http://www.w3.org/1999/02/22-rdf-syntax-ns#"
   xmlns:svg="http://www.w3.org/2000/svg"
   xmlns="http://www.w3.org/2000/svg"
   xmlns:sodipodi="http://sodipodi.sourceforge.net/DTD/sodipodi-0.dtd"
   xmlns:inkscape="http://www.inkscape.org/namespaces/inkscape"
   width="48"
   height="48"
   version="1"
   id="svg26"
   sodipodi:docname="postprocessing.svg"
   inkscape:version="1.0.2 (e86c870879, 2021-01-15)">
  <metadata
     id="metadata32">
    <rdf:RDF>
      <cc:Work
         rdf:about="">
        <dc:format>image/svg+xml</dc:format>
        <dc:type
           rdf:resource="http://purl.org/dc/dcmitype/StillImage" />
      </cc:Work>
    </rdf:RDF>
  </metadata>
  <defs
     id="defs30" />
  <sodipodi:namedview
     pagecolor="#ffffff"
     bordercolor="#666666"
     borderopacity="1"
     objecttolerance="10"
     gridtolerance="10"
     guidetolerance="10"
     inkscape:pageopacity="0"
     inkscape:pageshadow="2"
     inkscape:window-width="1920"
     inkscape:window-height="1015"
     id="namedview28"
     showgrid="false"
     inkscape:zoom="8.7395835"
     inkscape:cx="30.00634"
     inkscape:cy="29.522966"
     inkscape:window-x="1366"
     inkscape:window-y="37"
     inkscape:window-maximized="1"
     inkscape:current-layer="svg26"
     inkscape:document-rotation="0" />
  <path
     id="path923"
     style="fill:#0066b3;fill-opacity:1;stroke-width:0.0456604"
     d="m 19.116356,46.136007 c -3.437619,-1.223954 0.910332,-3.544527 1.808545,-5.227547 0.767583,-0.862787 2.247139,-2.532861 0.439769,-0.959326 -1.626314,1.310556 -3.239061,2.637895 -4.866854,3.946602 -1.843569,-1.058428 -0.714264,-2.494483 0.331302,-3.856848 1.068928,-1.720601 2.231707,-3.407498 3.235387,-5.153825 -2.090256,2.080428 -4.07799,4.264653 -6.167854,6.34426 -3.067106,-1.647249 0.633771,-3.732035 1.737541,-5.49566 1.247078,-1.476796 2.502997,-2.946272 3.736483,-4.434451 -2.969668,2.179952 -5.905431,4.405765 -8.856695,6.610558 -1.4677793,-0.722814 -0.487216,-1.705242 0.180075,-2.603707 0.948843,-1.456041 2.62736,-3.649466 3.134132,-4.642292 -1.796786,1.722319 -3.546302,3.493168 -5.3154836,5.243727 -1.8232752,-0.90846 0.014865,-2.146195 0.6313397,-3.234309 1.5780739,-2.273546 3.2153609,-4.509447 4.7834659,-6.787471 -2.775373,2.31587 -5.4057049,4.805054 -8.1793352,7.124715 C 4.6317187,32.417895 3.9476566,31.580121 5.1655572,30.780691 6.8627831,28.763717 8.5842485,26.766483 10.24584,24.720029 7.8075589,26.576492 5.4291315,28.515745 3.0253717,30.41902 0.59109906,28.931406 2.0281188,26.146144 4.061714,25.159401 c 3.8289703,-3.018877 7.655727,-6.041946 11.533496,-8.997695 5.361033,5.302586 10.74927,10.593898 15.928424,16.070777 -3.347058,4.496743 -6.729422,8.977964 -10.258066,13.333297 -0.569641,0.510331 -1.399164,0.76027 -2.149212,0.570227 z m 6.139746,-23.532204 c -2.821353,-2.911562 -5.834857,-5.661539 -8.524975,-8.686911 1.314383,-1.611706 3.803206,-4.2375336 5.695475,-1.775389 1.421754,1.24557 3.404857,4.141687 5.389565,2.18754 3.097331,-3.345211 4.099224,-8.1499278 7.474584,-11.2594495 3.00584,-2.83080984 8.409438,-1.7523488 10.286553,1.8724112 1.675699,2.9335567 0.750971,6.9470533 -2.040889,8.8607883 -3.265835,2.514628 -7.501001,3.685984 -10.381306,6.704064 -1.143383,2.528902 2.207547,3.959763 3.320156,5.811747 1.104486,1.757439 -1.681545,4.857489 -2.985193,4.477981 -2.758464,-2.716981 -5.494482,-5.456695 -8.23397,-8.192782 z M 41.587824,9.7390317 c 2.316069,-0.4866148 2.884068,-3.9246603 0.770081,-5.0679559 -1.902551,-1.3342946 -4.681041,0.5671787 -4.21306,2.8021313 0.226673,1.5255927 1.921954,2.7599629 3.442979,2.2658246 z" />
</svg>
