<?xml version="1.0" encoding="UTF-8" standalone="no"?>
<svg
   xmlns:dc="http://purl.org/dc/elements/1.1/"
   xmlns:cc="http://creativecommons.org/ns#"
   xmlns:rdf="http://www.w3.org/1999/02/22-rdf-syntax-ns#"
   xmlns:svg="http://www.w3.org/2000/svg"
   xmlns="http://www.w3.org/2000/svg"
   xmlns:sodipodi="http://sodipodi.sourceforge.net/DTD/sodipodi-0.dtd"
   xmlns:inkscape="http://www.inkscape.org/namespaces/inkscape"
   width="48"
   height="48"
   viewBox="0 0 12.7 12.7"
   version="1.1"
   id="svg858"
   inkscape:version="1.0.2 (e86c870879, 2021-01-15)"
   sodipodi:docname="dibujo.svg">
  <defs
     id="defs852" />
  <sodipodi:namedview
     id="base"
     pagecolor="#ffffff"
     bordercolor="#666666"
     borderopacity="1.0"
     inkscape:pageopacity="0.0"
     inkscape:pageshadow="2"
     inkscape:zoom="7.9195959"
     inkscape:cx="22.788027"
     inkscape:cy="24.934447"
     inkscape:document-units="mm"
     inkscape:current-layer="layer1"
     inkscape:document-rotation="0"
     showgrid="false"
     units="px"
     inkscape:window-width="1366"
     inkscape:window-height="768"
     inkscape:window-x="1641"
     inkscape:window-y="159"
     inkscape:window-maximized="0" />
  <metadata
     id="metadata855">
    <rdf:RDF>
      <cc:Work
         rdf:about="">
        <dc:format>image/svg+xml</dc:format>
        <dc:type
           rdf:resource="http://purl.org/dc/dcmitype/StillImage" />
        <dc:title></dc:title>
        <cc:license
           rdf:resource="http://creativecommons.org/licenses/by/4.0/" />
      </cc:Work>
      <cc:License
         rdf:about="http://creativecommons.org/licenses/by/4.0/">
        <cc:permits
           rdf:resource="http://creativecommons.org/ns#Reproduction" />
        <cc:permits
           rdf:resource="http://creativecommons.org/ns#Distribution" />
        <cc:requires
           rdf:resource="http://creativecommons.org/ns#Notice" />
        <cc:requires
           rdf:resource="http://creativecommons.org/ns#Attribution" />
        <cc:permits
           rdf:resource="http://creativecommons.org/ns#DerivativeWorks" />
      </cc:License>
    </rdf:RDF>
  </metadata>
  <g
     inkscape:label="Capa 1"
     inkscape:groupmode="layer"
     id="layer1">
    <path
       style="opacity:0.2;fill:#0066b3;fill-opacity:1;stroke-width:0.264583"
       d="m 2.8394459,1.2104556 c -0.29316,0 -0.52916,0.2360101 -0.52916,0.5291701 v 3.175 h 8.4666601 v -3.175 c 0,-0.29316 -0.23601,-0.5291701 -0.52916,-0.5291701 z"
       id="path6" />
    <path
       id="rect8"
       style="fill:#0066b3;fill-opacity:1;stroke-width:0.264583"
       d="m 1.7811159,4.1208757 c -0.2931599,0 -0.5291699,0.23601 -0.5291699,0.52917 v 3.43958 c 0,0.29316 0.23601,0.52917 0.5291699,0.52917 h 9.5250001 c 0.29316,0 0.52917,-0.23601 0.52917,-0.52917 v -3.43958 c 0,-0.29316 -0.23601,-0.52917 -0.52917,-0.52917 z m 0.92604,0.79375 h 0.26458 c 0.21987,0 0.39688,0.17701 0.39688,0.39687 v 0.26459 c 0,0.21987 -0.17701,0.39687 -0.39688,0.39687 h -0.26458 c -0.21987,0 -0.39687,-0.177 -0.39687,-0.39687 v -0.26459 c 0,-0.21986 0.177,-0.39687 0.39687,-0.39687 z m -0.92604,1.85208 h 9.5250001 v 1.05834 H 1.7811159 Z" />
    <path
       style="opacity:0.2;fill:#0066b3;fill-opacity:1;stroke-width:0.222306"
       d="m 2.3102859,8.6184757 v 2.8017503 c 0,0.20696 0.236,0.37357 0.52916,0.37357 h 7.4083401 c 0.29315,0 0.52916,-0.16661 0.52916,-0.37357 V 8.6184757 Z"
       id="path18" />
    <rect
       style="opacity:0.651736;fill:#0066b3;fill-opacity:1;stroke-width:0.264583"
       width="5.5562501"
       height="0.52916664"
       x="3.3686185"
       y="10.206287"
       id="rect22" />
    <rect
       style="opacity:0.651736;fill:#0066b3;fill-opacity:1;stroke-width:0.264583"
       width="4.4979167"
       height="0.52916664"
       x="3.3686185"
       y="9.147953"
       id="rect24" />
    <rect
       style="opacity:0.651736;fill:#0066b3;fill-opacity:1;stroke-width:0.264583"
       width="6.3499999"
       height="0.52916664"
       x="3.3686185"
       y="8.0896187"
       id="rect26" />
  </g>
</svg>
